<?xml version="1.0" encoding="UTF-8" standalone="no"?>
<!DOCTYPE svg PUBLIC "-//W3C//DTD SVG 1.1//EN"
 "http://www.w3.org/Graphics/SVG/1.1/DTD/svg11.dtd">
<!-- Generated by graphviz version 2.42.3 (20191010.1750)
 -->
<!-- Title: snakemake_dag Pages: 1 -->
<svg width="286pt" height="764pt"
 viewBox="0.00 0.00 285.50 764.00" xmlns="http://www.w3.org/2000/svg" xmlns:xlink="http://www.w3.org/1999/xlink">
<g id="graph0" class="graph" transform="scale(1 1) rotate(0) translate(4 760)">
<title>snakemake_dag</title>
<polygon fill="white" stroke="transparent" points="-4,4 -4,-760 281.5,-760 281.5,4 -4,4"/>
<!-- 0 -->
<g id="node1" class="node">
<title>0</title>
<path fill="none" stroke="#56c9d8" stroke-width="2" stroke-dasharray="5,2" d="M136.5,-36C136.5,-36 106.5,-36 106.5,-36 100.5,-36 94.5,-30 94.5,-24 94.5,-24 94.5,-12 94.5,-12 94.5,-6 100.5,0 106.5,0 106.5,0 136.5,0 136.5,0 142.5,0 148.5,-6 148.5,-12 148.5,-12 148.5,-24 148.5,-24 148.5,-30 142.5,-36 136.5,-36"/>
<text text-anchor="middle" x="121.5" y="-15.5" font-family="sans" font-size="10.00">all</text>
</g>
<!-- 1 -->
<g id="node2" class="node">
<title>1</title>
<path fill="none" stroke="#78d856" stroke-width="2" stroke-dasharray="5,2" d="M136.5,-108C136.5,-108 106.5,-108 106.5,-108 100.5,-108 94.5,-102 94.5,-96 94.5,-96 94.5,-84 94.5,-84 94.5,-78 100.5,-72 106.5,-72 106.5,-72 136.5,-72 136.5,-72 142.5,-72 148.5,-78 148.5,-84 148.5,-84 148.5,-96 148.5,-96 148.5,-102 142.5,-108 136.5,-108"/>
<text text-anchor="middle" x="121.5" y="-87.5" font-family="sans" font-size="10.00">final</text>
</g>
<!-- 1&#45;&gt;0 -->
<g id="edge1" class="edge">
<title>1&#45;&gt;0</title>
<path fill="none" stroke="grey" stroke-width="2" d="M121.5,-71.7C121.5,-63.98 121.5,-54.71 121.5,-46.11"/>
<polygon fill="grey" stroke="grey" stroke-width="2" points="125,-46.1 121.5,-36.1 118,-46.1 125,-46.1"/>
</g>
<!-- 2 -->
<g id="node3" class="node">
<title>2</title>
<path fill="none" stroke="#c6d856" stroke-width="2" stroke-dasharray="5,2" d="M53,-324C53,-324 12,-324 12,-324 6,-324 0,-318 0,-312 0,-312 0,-300 0,-300 0,-294 6,-288 12,-288 12,-288 53,-288 53,-288 59,-288 65,-294 65,-300 65,-300 65,-312 65,-312 65,-318 59,-324 53,-324"/>
<text text-anchor="middle" x="32.5" y="-303.5" font-family="sans" font-size="10.00">hyphy_fel</text>
</g>
<!-- 2&#45;&gt;1 -->
<g id="edge2" class="edge">
<title>2&#45;&gt;1</title>
<path fill="none" stroke="grey" stroke-width="2" d="M39.63,-287.85C55.13,-250.6 91.94,-162.07 110.46,-117.54"/>
<polygon fill="grey" stroke="grey" stroke-width="2" points="113.72,-118.81 114.33,-108.23 107.26,-116.12 113.72,-118.81"/>
</g>
<!-- 3 -->
<g id="node4" class="node">
<title>3</title>
<path fill="none" stroke="#56d87b" stroke-width="2" stroke-dasharray="5,2" d="M127.5,-396C127.5,-396 97.5,-396 97.5,-396 91.5,-396 85.5,-390 85.5,-384 85.5,-384 85.5,-372 85.5,-372 85.5,-366 91.5,-360 97.5,-360 97.5,-360 127.5,-360 127.5,-360 133.5,-360 139.5,-366 139.5,-372 139.5,-372 139.5,-384 139.5,-384 139.5,-390 133.5,-396 127.5,-396"/>
<text text-anchor="middle" x="112.5" y="-375.5" font-family="sans" font-size="10.00">tidy_up</text>
</g>
<!-- 3&#45;&gt;2 -->
<g id="edge5" class="edge">
<title>3&#45;&gt;2</title>
<path fill="none" stroke="grey" stroke-width="2" d="M92.72,-359.7C82.75,-350.97 70.49,-340.24 59.64,-330.75"/>
<polygon fill="grey" stroke="grey" stroke-width="2" points="61.88,-328.06 52.05,-324.1 57.27,-333.32 61.88,-328.06"/>
</g>
<!-- 10 -->
<g id="node11" class="node">
<title>10</title>
<path fill="none" stroke="#d85656" stroke-width="2" stroke-dasharray="5,2" d="M148,-324C148,-324 95,-324 95,-324 89,-324 83,-318 83,-312 83,-312 83,-300 83,-300 83,-294 89,-288 95,-288 95,-288 148,-288 148,-288 154,-288 160,-294 160,-300 160,-300 160,-312 160,-312 160,-318 154,-324 148,-324"/>
<text text-anchor="middle" x="121.5" y="-303.5" font-family="sans" font-size="10.00">hyphy_fubar</text>
</g>
<!-- 3&#45;&gt;10 -->
<g id="edge13" class="edge">
<title>3&#45;&gt;10</title>
<path fill="none" stroke="grey" stroke-width="2" d="M114.72,-359.7C115.72,-351.98 116.91,-342.71 118.01,-334.11"/>
<polygon fill="grey" stroke="grey" stroke-width="2" points="121.5,-334.47 119.3,-324.1 114.55,-333.58 121.5,-334.47"/>
</g>
<!-- 13 -->
<g id="node14" class="node">
<title>13</title>
<path fill="none" stroke="#59d856" stroke-width="2" stroke-dasharray="5,2" d="M251,-324C251,-324 190,-324 190,-324 184,-324 178,-318 178,-312 178,-312 178,-300 178,-300 178,-294 184,-288 190,-288 190,-288 251,-288 251,-288 257,-288 263,-294 263,-300 263,-300 263,-312 263,-312 263,-318 257,-324 251,-324"/>
<text text-anchor="middle" x="220.5" y="-303.5" font-family="sans" font-size="10.00">codeml_setup</text>
</g>
<!-- 3&#45;&gt;13 -->
<g id="edge17" class="edge">
<title>3&#45;&gt;13</title>
<path fill="none" stroke="grey" stroke-width="2" d="M138.92,-359.88C152.91,-350.81 170.28,-339.55 185.39,-329.76"/>
<polygon fill="grey" stroke="grey" stroke-width="2" points="187.49,-332.57 193.98,-324.19 183.68,-326.69 187.49,-332.57"/>
</g>
<!-- 4 -->
<g id="node5" class="node">
<title>4</title>
<path fill="none" stroke="#d8c356" stroke-width="2" stroke-dasharray="5,2" d="M127.5,-468C127.5,-468 97.5,-468 97.5,-468 91.5,-468 85.5,-462 85.5,-456 85.5,-456 85.5,-444 85.5,-444 85.5,-438 91.5,-432 97.5,-432 97.5,-432 127.5,-432 127.5,-432 133.5,-432 139.5,-438 139.5,-444 139.5,-444 139.5,-456 139.5,-456 139.5,-462 133.5,-468 127.5,-468"/>
<text text-anchor="middle" x="112.5" y="-447.5" font-family="sans" font-size="10.00">raxml</text>
</g>
<!-- 4&#45;&gt;3 -->
<g id="edge7" class="edge">
<title>4&#45;&gt;3</title>
<path fill="none" stroke="grey" stroke-width="2" d="M112.5,-431.7C112.5,-423.98 112.5,-414.71 112.5,-406.11"/>
<polygon fill="grey" stroke="grey" stroke-width="2" points="116,-406.1 112.5,-396.1 109,-406.1 116,-406.1"/>
</g>
<!-- 5 -->
<g id="node6" class="node">
<title>5</title>
<path fill="none" stroke="#56a2d8" stroke-width="2" stroke-dasharray="5,2" d="M182.5,-540C182.5,-540 96.5,-540 96.5,-540 90.5,-540 84.5,-534 84.5,-528 84.5,-528 84.5,-516 84.5,-516 84.5,-510 90.5,-504 96.5,-504 96.5,-504 182.5,-504 182.5,-504 188.5,-504 194.5,-510 194.5,-516 194.5,-516 194.5,-528 194.5,-528 194.5,-534 188.5,-540 182.5,-540"/>
<text text-anchor="middle" x="139.5" y="-519.5" font-family="sans" font-size="10.00">codon_guided_msa</text>
</g>
<!-- 5&#45;&gt;2 -->
<g id="edge6" class="edge">
<title>5&#45;&gt;2</title>
<path fill="none" stroke="grey" stroke-width="2" d="M112.24,-503.79C99.68,-494.58 85.59,-482.21 76.5,-468 49.73,-426.15 39.08,-368.15 34.97,-334.39"/>
<polygon fill="grey" stroke="grey" stroke-width="2" points="38.43,-333.89 33.85,-324.34 31.48,-334.66 38.43,-333.89"/>
</g>
<!-- 5&#45;&gt;4 -->
<g id="edge8" class="edge">
<title>5&#45;&gt;4</title>
<path fill="none" stroke="grey" stroke-width="2" d="M132.83,-503.7C129.79,-495.81 126.12,-486.3 122.74,-477.55"/>
<polygon fill="grey" stroke="grey" stroke-width="2" points="125.96,-476.17 119.1,-468.1 119.43,-478.69 125.96,-476.17"/>
</g>
<!-- 5&#45;&gt;10 -->
<g id="edge14" class="edge">
<title>5&#45;&gt;10</title>
<path fill="none" stroke="grey" stroke-width="2" d="M143.67,-503.79C150.17,-474.02 160.78,-411.18 148.5,-360 146.29,-350.81 142.21,-341.41 137.88,-333.13"/>
<polygon fill="grey" stroke="grey" stroke-width="2" points="140.9,-331.36 132.97,-324.33 134.78,-334.77 140.9,-331.36"/>
</g>
<!-- 5&#45;&gt;13 -->
<g id="edge18" class="edge">
<title>5&#45;&gt;13</title>
<path fill="none" stroke="grey" stroke-width="2" d="M148.74,-503.59C153.98,-493.37 160.48,-480.12 165.5,-468 184.67,-421.71 202.59,-366.07 212.49,-333.8"/>
<polygon fill="grey" stroke="grey" stroke-width="2" points="215.85,-334.77 215.42,-324.18 209.16,-332.73 215.85,-334.77"/>
</g>
<!-- 6 -->
<g id="node7" class="node">
<title>6</title>
<path fill="none" stroke="#d87d56" stroke-width="2" stroke-dasharray="5,2" d="M135.5,-612C135.5,-612 13.5,-612 13.5,-612 7.5,-612 1.5,-606 1.5,-600 1.5,-600 1.5,-588 1.5,-588 1.5,-582 7.5,-576 13.5,-576 13.5,-576 135.5,-576 135.5,-576 141.5,-576 147.5,-582 147.5,-588 147.5,-588 147.5,-600 147.5,-600 147.5,-606 141.5,-612 135.5,-612"/>
<text text-anchor="middle" x="74.5" y="-597" font-family="sans" font-size="10.00">merge_cds</text>
<text text-anchor="middle" x="74.5" y="-586" font-family="sans" font-size="10.00">locus: Solyc01g006290.4.1</text>
</g>
<!-- 6&#45;&gt;5 -->
<g id="edge9" class="edge">
<title>6&#45;&gt;5</title>
<path fill="none" stroke="grey" stroke-width="2" d="M90.57,-575.7C98.44,-567.22 108.06,-556.86 116.67,-547.58"/>
<polygon fill="grey" stroke="grey" stroke-width="2" points="119.38,-549.81 123.62,-540.1 114.25,-545.05 119.38,-549.81"/>
</g>
<!-- 7 -->
<g id="node8" class="node">
<title>7</title>
<path fill="none" stroke="#567bd8" stroke-width="2" stroke-dasharray="5,2" d="M231,-612C231,-612 178,-612 178,-612 172,-612 166,-606 166,-600 166,-600 166,-588 166,-588 166,-582 172,-576 178,-576 178,-576 231,-576 231,-576 237,-576 243,-582 243,-588 243,-588 243,-600 243,-600 243,-606 237,-612 231,-612"/>
<text text-anchor="middle" x="204.5" y="-591.5" font-family="sans" font-size="10.00">protein_msa</text>
</g>
<!-- 7&#45;&gt;5 -->
<g id="edge10" class="edge">
<title>7&#45;&gt;5</title>
<path fill="none" stroke="grey" stroke-width="2" d="M188.43,-575.7C180.56,-567.22 170.94,-556.86 162.33,-547.58"/>
<polygon fill="grey" stroke="grey" stroke-width="2" points="164.75,-545.05 155.38,-540.1 159.62,-549.81 164.75,-545.05"/>
</g>
<!-- 8 -->
<g id="node9" class="node">
<title>8</title>
<path fill="none" stroke="#d8a456" stroke-width="2" stroke-dasharray="5,2" d="M232.5,-684C232.5,-684 176.5,-684 176.5,-684 170.5,-684 164.5,-678 164.5,-672 164.5,-672 164.5,-660 164.5,-660 164.5,-654 170.5,-648 176.5,-648 176.5,-648 232.5,-648 232.5,-648 238.5,-648 244.5,-654 244.5,-660 244.5,-660 244.5,-672 244.5,-672 244.5,-678 238.5,-684 232.5,-684"/>
<text text-anchor="middle" x="204.5" y="-663.5" font-family="sans" font-size="10.00">remove_stop</text>
</g>
<!-- 8&#45;&gt;7 -->
<g id="edge11" class="edge">
<title>8&#45;&gt;7</title>
<path fill="none" stroke="grey" stroke-width="2" d="M204.5,-647.7C204.5,-639.98 204.5,-630.71 204.5,-622.11"/>
<polygon fill="grey" stroke="grey" stroke-width="2" points="208,-622.1 204.5,-612.1 201,-622.1 208,-622.1"/>
</g>
<!-- 9 -->
<g id="node10" class="node">
<title>9</title>
<path fill="none" stroke="#9fd856" stroke-width="2" stroke-dasharray="5,2" d="M265.5,-756C265.5,-756 143.5,-756 143.5,-756 137.5,-756 131.5,-750 131.5,-744 131.5,-744 131.5,-732 131.5,-732 131.5,-726 137.5,-720 143.5,-720 143.5,-720 265.5,-720 265.5,-720 271.5,-720 277.5,-726 277.5,-732 277.5,-732 277.5,-744 277.5,-744 277.5,-750 271.5,-756 265.5,-756"/>
<text text-anchor="middle" x="204.5" y="-741" font-family="sans" font-size="10.00">translate</text>
<text text-anchor="middle" x="204.5" y="-730" font-family="sans" font-size="10.00">locus: Solyc01g006290.4.1</text>
</g>
<!-- 9&#45;&gt;8 -->
<g id="edge12" class="edge">
<title>9&#45;&gt;8</title>
<path fill="none" stroke="grey" stroke-width="2" d="M204.5,-719.7C204.5,-711.98 204.5,-702.71 204.5,-694.11"/>
<polygon fill="grey" stroke="grey" stroke-width="2" points="208,-694.1 204.5,-684.1 201,-694.1 208,-694.1"/>
</g>
<!-- 10&#45;&gt;1 -->
<g id="edge3" class="edge">
<title>10&#45;&gt;1</title>
<path fill="none" stroke="grey" stroke-width="2" d="M121.5,-287.85C121.5,-250.83 121.5,-163.18 121.5,-118.39"/>
<polygon fill="grey" stroke="grey" stroke-width="2" points="125,-118.23 121.5,-108.23 118,-118.23 125,-118.23"/>
</g>
<!-- 11 -->
<g id="node12" class="node">
<title>11</title>
<path fill="none" stroke="#56d8a2" stroke-width="2" stroke-dasharray="5,2" d="M234.5,-180C234.5,-180 176.5,-180 176.5,-180 170.5,-180 164.5,-174 164.5,-168 164.5,-168 164.5,-156 164.5,-156 164.5,-150 170.5,-144 176.5,-144 176.5,-144 234.5,-144 234.5,-144 240.5,-144 246.5,-150 246.5,-156 246.5,-156 246.5,-168 246.5,-168 246.5,-174 240.5,-180 234.5,-180"/>
<text text-anchor="middle" x="205.5" y="-159.5" font-family="sans" font-size="10.00">codeml_stats</text>
</g>
<!-- 11&#45;&gt;1 -->
<g id="edge4" class="edge">
<title>11&#45;&gt;1</title>
<path fill="none" stroke="grey" stroke-width="2" d="M184.74,-143.7C174.26,-134.97 161.39,-124.24 150,-114.75"/>
<polygon fill="grey" stroke="grey" stroke-width="2" points="151.95,-111.82 142.03,-108.1 147.47,-117.19 151.95,-111.82"/>
</g>
<!-- 12 -->
<g id="node13" class="node">
<title>12</title>
<path fill="none" stroke="#56d8c9" stroke-width="2" stroke-dasharray="5,2" d="M237.5,-252C237.5,-252 187.5,-252 187.5,-252 181.5,-252 175.5,-246 175.5,-240 175.5,-240 175.5,-228 175.5,-228 175.5,-222 181.5,-216 187.5,-216 187.5,-216 237.5,-216 237.5,-216 243.5,-216 249.5,-222 249.5,-228 249.5,-228 249.5,-240 249.5,-240 249.5,-246 243.5,-252 237.5,-252"/>
<text text-anchor="middle" x="212.5" y="-231.5" font-family="sans" font-size="10.00">codeml_run</text>
</g>
<!-- 12&#45;&gt;11 -->
<g id="edge15" class="edge">
<title>12&#45;&gt;11</title>
<path fill="none" stroke="grey" stroke-width="2" d="M210.77,-215.7C210,-207.98 209.07,-198.71 208.21,-190.11"/>
<polygon fill="grey" stroke="grey" stroke-width="2" points="211.69,-189.71 207.21,-180.1 204.72,-190.4 211.69,-189.71"/>
</g>
<!-- 13&#45;&gt;12 -->
<g id="edge16" class="edge">
<title>13&#45;&gt;12</title>
<path fill="none" stroke="grey" stroke-width="2" d="M218.52,-287.7C217.64,-279.98 216.58,-270.71 215.6,-262.11"/>
<polygon fill="grey" stroke="grey" stroke-width="2" points="219.07,-261.64 214.45,-252.1 212.11,-262.44 219.07,-261.64"/>
</g>
</g>
</svg>
